<svg xmlns="http://www.w3.org/2000/svg" viewBox="0 0 166.24 208.4" height="20" style="height:20px;"><defs><style>.cls-1{fill:#FA6742;}</style></defs><path class="cls-1" d="M34.22,158.41H.22c0-9.5-.67-18.64.33-27.61C1,127.15,5,123.86,7.44,120.47Q23.52,98.32,39.63,76.18a11,11,0,0,0,.84-1.73C49.54,62.22,58.65,50,67.66,37.76,76,26.4,84.32,15,92.48,3.52A7.31,7.31,0,0,1,99.36,0C110,.21,120.62.1,132,.1V119.72h33.82c.94,11.82.12,23.67.43,35.5,0,3.51-2.61,3-4.87,3H131.8V208.4h-40v-50ZM91.63,70.88l-1.11-.34L54.7,119.34H91.63Z"/></svg>