<svg width="26" height="22" viewBox="0 0 26 22" xmlns="http://www.w3.org/2000/svg"><title>jcb</title><path d="M21.677 10.97c.36.088.662.45.662.943 0 .493-.3.854-.662.942a1.164 1.164 0 0 1-.223.024h-1.882v-1.934h1.882c.06 0 .17.01.223.024v.001zm-2.105-2.9h1.706c.062 0 .152.01.185.016.352.068.654.392.654.876s-.302.81-.654.876a1.181 1.181 0 0 1-.185.017h-1.706V8.07zM22.752 20h-4.768v-5.976h5.04c1.181 0 2.07-.717 2.07-1.833 0-1.03-.81-1.685-1.865-1.768v-.04c.955-.16 1.48-.862 1.48-1.684 0-1.047-.768-1.65-1.81-1.71-.08-.004-.21-.012-.317-.012h-4.6v-2.81c0-1.747 1.457-3.165 3.25-3.165H26v15.833C25.999 18.58 24.546 20 22.75 20h.001zM8.99 20v-6.967c.814.796 2.22 1.294 4.502 1.177 1.222-.064 2.518-.438 2.518-.438v-1.55c-.638.365-1.426.722-2.428.808-1.732.15-2.775-.817-2.775-2.53 0-1.713 1.043-2.68 2.775-2.53 1.002.086 1.78.434 2.43.81V7.228c-1.105-.228-1.297-.375-2.52-.437-2.282-.117-3.687.38-4.499 1.178v-3.8C8.991 2.417 10.446 1 12.241 1h4.766v15.833c0 1.748-1.457 3.166-3.252 3.166L8.991 20zM0 20v-6.23c.002.23 1.4.454 3.182.454 2.962 0 3.825-1.334 3.825-2.997V6.975H4.341v4.253c0 1.04-.587 1.814-1.66 1.814-.913 0-1.811-.325-2.679-.823V4.168C.002 2.42 1.449 1 3.237 1h4.75v15.833c0 1.748-1.45 3.166-3.24 3.166L0 20z" fill="#525F7F" fill-rule="evenodd"/></svg>