<svg width="50" height="22" viewBox="0 0 50 22" xmlns="http://www.w3.org/2000/svg"><title>discover</title><path d="M50 14.806h-1.917l-2.152-3.068h-.203v3.066h-1.556V7.173h2.308c1.794 0 2.822.824 2.822 2.254 0 1.168-.645 1.935-1.818 2.165l2.512 3.215H50zm-2.296-5.3c0-.745-.524-1.134-1.497-1.134h-.476v2.313h.452c.996 0 1.521-.413 1.521-1.18zm-8.967-2.333h4.41v1.292H40.29v1.693h2.748v1.293H40.29v2.062h2.858v1.292h-4.414V7.173h.003zM33.747 15l-3.384-7.827h1.698l2.128 5.125 2.155-5.125h1.684L34.584 15h-.837zm-7.318-.022c-2.43 0-4.251-1.723-4.251-4.027 0-2.166 1.903-3.923 4.251-3.923 2.382 0 4.24 1.746 4.24 3.97 0 2.233-1.87 3.979-4.24 3.979v.001zm-6.793 0c-2.367 0-4.21-1.741-4.21-3.986 0-2.218 1.89-3.992 4.246-3.992.67 0 1.233.136 1.915.467v1.752c-.645-.607-1.209-.859-1.95-.859a2.591 2.591 0 0 0-2.608 2.62c0 1.547 1.114 2.635 2.68 2.635.706 0 1.256-.241 1.88-.836v1.752c-.706.318-1.28.445-1.95.445l-.003.002zm-4.699-2.497c0 1.479-1.136 2.508-2.75 2.508-1.185 0-2.046-.447-2.764-1.453l1.005-.928c.36.664.958 1.019 1.699 1.019.695 0 1.21-.458 1.21-1.077 0-.32-.155-.594-.467-.788-.155-.095-.467-.23-1.077-.436-1.459-.504-1.961-1.043-1.961-2.096 0-1.247 1.076-2.185 2.485-2.185a3.58 3.58 0 0 1 2.346.848l-.813 1.016c-.409-.434-.79-.617-1.258-.617-.67 0-1.16.367-1.16.848 0 .41.274.629 1.21.96 1.769.62 2.294 1.169 2.294 2.382h.001zM7.283 7.173h1.554v7.633H7.283V7.173zm-5.008 7.633H0V7.173h2.286c2.522 0 4.28 1.566 4.28 3.819 0 1.124-.539 2.212-1.448 2.933-.764.606-1.637.88-2.843.88v.001zm1.829-5.724c-.516-.446-1.124-.618-2.13-.618h-.416v5.049h.416c1.006 0 1.64-.184 2.13-.61.538-.455.857-1.19.857-1.923 0-.732-.319-1.441-.857-1.9v.002z" fill="#525F7F" fill-rule="evenodd"/></svg>