<svg xmlns="http://www.w3.org/2000/svg" viewBox="0 0 447.6 447.6"><path d="m231.800781 367.390625c73.101563-4.132813 131.457031-62.488281 135.589844-135.589844h-64c-3.851563 37.828125-33.761719 67.738281-71.589844 71.589844zm0 0"></path><path d="m231.800781 0v64.207031c81.933594 4.171875 147.421875 69.660157 151.589844 151.59375h64.210937c-4.328124-117.34375-98.457031-211.472656-215.800781-215.800781zm0 0"></path><path d="m231.800781 287.246094c28.957031-3.691406 51.753907-26.488282 55.445313-55.445313h-55.445313zm0 0"></path><path d="m231.800781 215.800781h55.445313c-3.691406-28.957031-26.488282-51.757812-55.445313-55.449219zm0 0"></path><path d="m303.390625 215.800781h64c-4.132813-73.105469-62.488281-131.457031-135.589844-135.59375v64c37.828125 3.851563 67.738281 33.765625 71.589844 71.59375zm0 0"></path><path d="m383.390625 231.800781c-4.167969 81.933594-69.65625 147.421875-151.589844 151.589844v64.210937c117.34375-4.328124 211.472657-98.457031 215.800781-215.800781zm0 0"></path><path d="m215.800781 303.390625c-37.828125-3.851563-67.742187-33.761719-71.59375-71.589844h-64c4.136719 73.101563 62.488281 131.457031 135.59375 135.589844zm0 0"></path><path d="m64.207031 231.800781h-64.207031c4.328125 117.34375 98.457031 211.472657 215.800781 215.800781v-64.210937c-81.933593-4.167969-147.421875-69.65625-151.59375-151.589844zm0 0"></path><path d="m215.800781 80.207031c-73.105469 4.136719-131.457031 62.488281-135.59375 135.59375h64c3.851563-37.828125 33.765625-67.742187 71.59375-71.59375zm0 0"></path><path d="m215.800781 0c-117.34375 4.328125-211.472656 98.457031-215.800781 215.800781h64.207031c4.171875-81.933593 69.660157-147.421875 151.59375-151.59375zm0 0"></path><path d="m215.800781 160.351562c-28.957031 3.691407-51.757812 26.492188-55.449219 55.449219h55.449219zm0 0"></path><path d="m215.800781 231.800781h-55.449219c3.691407 28.957031 26.492188 51.753907 55.449219 55.445313zm0 0"></path></g> </svg>