<svg xmlns="http://www.w3.org/2000/svg" viewBox="0 0 24.1 24"><path style="fill:#f86b70;" d="M11,2H9A.94.94,0,0,0,8,3V7.5a.47.47,0,0,1-.5.5h-15A.47.47,0,0,1-8,7.5v-15a.47.47,0,0,1,.5-.5H-3A.94.94,0,0,0-2-9v-2a.94.94,0,0,0-1-1h-8a.94.94,0,0,0-1,1V11a.94.94,0,0,0,1,1H11a.94.94,0,0,0,1-1V3A.94.94,0,0,0,11,2Z" transform="translate(12.05 12)"/><path d="M-2.85,4h8a.94.94,0,0,0,1-1V1a.94.94,0,0,0-1-1h-1a.55.55,0,0,1-.4-.9l8-8a1,1,0,0,0,0-1.4l-1.4-1.4a1,1,0,0,0-1.4,0l-8,8a.54.54,0,0,1-.9-.4v-1a.94.94,0,0,0-1-1h-2a.94.94,0,0,0-1,1v8C-3.85,3.6-3.45,4-2.85,4Z" transform="translate(12.05 12)"/></svg>