<svg xmlns="http://www.w3.org/2000/svg" viewBox="0 0 512.88 512"><defs><style>.cls-1{fill:#e8edee;}.cls-2{fill:#546a79;}.cls-3{fill:#ed7161;}.cls-4{fill:#ecba16;}.cls-5{fill:#42b05c;}.cls-6{fill:#bdc3c7;}</style></defs><path class="cls-1" d="M39.56,153.93V540.58A19.6,19.6,0,0,0,59,560H532.14a19.6,19.6,0,0,0,19.42-19.42V153.93Z" transform="translate(-39.56 -48)"/><path class="cls-2" d="M551.56,153.93h-512V64.77C39.56,55.06,46.62,48,56.33,48H535.67a16.76,16.76,0,0,1,16.77,16.77v89.16Z" transform="translate(-39.56 -48)"/><path class="cls-3" d="M119,101a26,26,0,0,1-26.49,26.48,26.49,26.49,0,0,1,0-53A26,26,0,0,1,119,101" transform="translate(-39.56 -48)"/><path class="cls-4" d="M198.46,101A26.49,26.49,0,1,1,172,74.48,26,26,0,0,1,198.46,101" transform="translate(-39.56 -48)"/><path class="cls-5" d="M277.9,101a26.48,26.48,0,1,1-26.48-26.49A26,26,0,0,1,277.9,101" transform="translate(-39.56 -48)"/><path class="cls-6" d="M93.14,206H260.86a8.83,8.83,0,1,0,0-17.65H93.14a8.83,8.83,0,1,0,0,17.65Z" transform="translate(-39.56 -48)"/><path class="cls-6" d="M93.14,241.34H481.55a8.83,8.83,0,1,0,0-17.65H93.14a8.83,8.83,0,1,0,0,17.65Z" transform="translate(-39.56 -48)"/><path class="cls-6" d="M481.55,259H93.14a8.83,8.83,0,1,0,0,17.66H481.55a8.83,8.83,0,0,0,0-17.66Z" transform="translate(-39.56 -48)"/><path class="cls-6" d="M93.14,317.38H260.86a8.83,8.83,0,0,0,0-17.66H93.14a8.83,8.83,0,0,0,0,17.66Z" transform="translate(-39.56 -48)"/><path class="cls-6" d="M93.14,352.69H481.55a8.83,8.83,0,0,0,0-17.66H93.14a8.83,8.83,0,1,0,0,17.66Z" transform="translate(-39.56 -48)"/><path class="cls-6" d="M481.55,370.34H93.14a8.83,8.83,0,1,0,0,17.66H481.55a8.83,8.83,0,0,0,0-17.66Z" transform="translate(-39.56 -48)"/><path class="cls-6" d="M481.55,405.66H93.14a8.83,8.83,0,1,0,0,17.65H481.55a8.83,8.83,0,1,0,0-17.65Z" transform="translate(-39.56 -48)"/><path class="cls-6" d="M93.14,464H260.86a8.83,8.83,0,1,0,0-17.65H93.14a8.83,8.83,0,1,0,0,17.65Z" transform="translate(-39.56 -48)"/><path class="cls-6" d="M93.14,499.34H481.55a8.83,8.83,0,1,0,0-17.65H93.14a8.83,8.83,0,1,0,0,17.65Z" transform="translate(-39.56 -48)"/><path class="cls-6" d="M481.55,517H93.14a8.83,8.83,0,0,0,0,17.66H481.55a8.83,8.83,0,0,0,0-17.66Z" transform="translate(-39.56 -48)"/></svg>