<svg xmlns="http://www.w3.org/2000/svg" xmlns:xlink="http://www.w3.org/1999/xlink" version="1.1" x="0px" y="0px" viewBox="0 0 512.883 512.883" xml:space="preserve"><g><path style="fill:#E8EDEE;" d="M0,106.372v386.648c0,10.593,8.828,19.421,19.421,19.421h104.166h264.828h104.166 c10.593,0,19.421-8.828,19.421-19.421V106.372H0z" data-original="#E8EDEE" class=""></path><g> <path style="fill:#7383BF;" d="M247.172,371.2h17.655V247.614h-17.655V371.2z" data-original="#7383BF"></path> <path style="fill:#7383BF;" d="M423.724,371.2h-17.655v-61.793H105.931V371.2H88.276v-79.448h335.448V371.2z" data-original="#7383BF"></path> </g><g> <path style="fill:#ED7161;" d="M52.966,459.476h88.276V371.2H52.966V459.476z" data-original="#ED7161"></path> <path style="fill:#ED7161;" d="M211.862,459.476h88.276V371.2h-88.276V459.476z" data-original="#ED7161"></path> <path style="fill:#ED7161;" d="M211.862,256.441h88.276v-88.276h-88.276V256.441z" data-original="#ED7161"></path> <path style="fill:#ED7161;" d="M370.759,459.476h88.276V371.2h-88.276V459.476z" data-original="#ED7161"></path> </g><path style="fill:#546A79" d="M512,106.372H0V17.214C0,7.503,7.062,0.441,16.772,0.441H496.11c8.828,0,16.772,7.062,16.772,16.772 v89.159H512z" data-original="#546A79" class="active-path"></path><path style="fill:#ED7161;" d="M79.448,53.407c0,15.007-11.476,26.483-26.483,26.483S26.483,68.414,26.483,53.407 s11.476-26.483,26.483-26.483S79.448,38.4,79.448,53.407" data-original="#ED7161"></path><path style="fill:#ECBA16;" d="M158.897,53.407c0,15.007-11.476,26.483-26.483,26.483c-15.007,0-26.483-11.476-26.483-26.483 s11.476-26.483,26.483-26.483C147.421,26.924,158.897,38.4,158.897,53.407" data-original="#ECBA16" class=""></path><path style="fill:#42B05C;" d="M238.345,53.407c0,15.007-11.476,26.483-26.483,26.483c-15.007,0-26.483-11.476-26.483-26.483 s11.476-26.483,26.483-26.483C226.869,26.924,238.345,38.4,238.345,53.407" data-original="#42B05C" class=""></path></g> </svg>