<svg id="nothing_see" data-name="nothing_see" xmlns="http://www.w3.org/2000/svg" viewBox="0 0 427.01 341.61"><defs><style>.nothing_see_cls-1{fill:#bbb;}</style></defs><path class="nothing_see_cls-1" d="M229.52,352.35q-93.42,0-186.85,0C23.52,352.33,16,344.94,16,326q0-144.75,0-289.5c0-18.18,7.68-25.77,26-25.78q187.43,0,374.85,0c18.4,0,26.08,7.57,26.08,25.72q.06,145.34,0,290.66c0,17.42-7.86,25.17-25.44,25.19Q323.53,352.39,229.52,352.35Zm0-298c-52.3,0-104.61.22-156.91-.21-9.74-.08-13.3,2-13.23,12.62q.69,114.8,0,229.59C59.28,307,62.87,309,72.59,309q156.91-.48,313.82,0c9.73,0,13.3-2,13.23-12.61q-.69-114.79,0-229.59c.07-10.63-3.52-12.69-13.24-12.61C334.1,54.57,281.79,54.35,229.49,54.35Z" transform="translate(-15.99 -10.74)"/><path class="nothing_see_cls-1" d="M172.1,104.14c15.4,24.9,29.31,47.33,43.16,69.8,10.68,17.3,21.39,34.59,31.87,52,3.62,6,7.49,7.54,14.14,4.1,17-8.83,34.37-17.09,51.62-25.49,4.69-2.29,9.08-4,12.51,2.51,10.17,19.3,20.7,38.4,31.82,58.93H101.79C125,212.48,148.05,159.52,172.1,104.14Z" transform="translate(-15.99 -10.74)"/><path class="nothing_see_cls-1" d="M298.28,107.53c15.58-.15,26.73,10.16,27,25,.29,15.55-10.71,27.5-25.82,28.05-14,.51-27.43-12.72-27.27-26.92C272.37,118.49,283.18,107.67,298.28,107.53Z" transform="translate(-15.99 -10.74)"/></svg>