<svg xmlns="http://www.w3.org/2000/svg" xmlns:xlink="http://www.w3.org/1999/xlink" version="1.1" x="0px" y="0px" viewBox="0 0 512 512" xml:space="preserve"><g><g> <rect x="214.3" y="63.08" style="fill: #FA6742;" width="83.4" height="226.29" data-original="#F92814" class=""></rect> <rect x="214.3" y="365.52" style="fill: #FA6742;" width="83.4" height="83.4" data-original="#F92814" class=""></rect> </g><g> <path style="fill:#DCE1EB;" d="M74.981,437.02C26.629,388.668,0,324.381,0,256S26.629,123.332,74.981,74.98l21.213,21.213 C53.508,138.879,30,195.633,30,256s23.508,117.121,66.194,159.807L74.981,437.02z" data-original="#DCE1EB" class=""></path> <path style="fill:#DCE1EB;" d="M117.467,394.533C80.409,357.476,60,308.277,60,256s20.409-101.476,57.467-138.533l21.213,21.213 C107.288,170.071,90,211.736,90,256s17.288,85.929,48.68,117.32L117.467,394.533z" data-original="#DCE1EB" class=""></path> <path style="fill:#DCE1EB;" d="M437.019,437.02l-21.213-21.213C458.492,373.121,482,316.367,482,256 s-23.508-117.121-66.194-159.807l21.213-21.213C485.371,123.332,512,187.619,512,256S485.371,388.668,437.019,437.02z" data-original="#DCE1EB" class=""></path> <path style="fill:#DCE1EB;" d="M394.533,394.533L373.32,373.32C404.712,341.929,422,300.264,422,256s-17.288-85.929-48.68-117.32 l21.213-21.213C431.591,154.524,452,203.723,452,256S431.591,357.476,394.533,394.533z" data-original="#DCE1EB" class=""></path> </g></g> </svg>