<svg id="rank4win_logo_svg" xmlns="http://www.w3.org/2000/svg" viewBox="0 0 984.51 217.39" width="75" height="17" style="height:17px;width:75px;"><defs><style>.rank4win_logo_svg-1{fill:#2f2c2c}.rank4win_logo_svg-2{fill:#fff}</style></defs><path class="rank4win_logo_svg-1" d="M463.75,5.38a23.35,23.35,0,0,0-.45,3.3q0,54.11,0,108.22c0,.79.11,1.59.17,2.39,2,.56,2.66-1.07,3.63-2q15.48-14.49,30.84-29.1a7.27,7.27,0,0,1,5.51-2.45c11.15.16,22.3.12,33.44.15a10.25,10.25,0,0,1-.84,1.73q-16.11,22.15-32.26,44.29c-2.46,3.39-6.48,6.68-6.89,10.33-1,9-.33,18.11-.33,27.61h34l35,45.37c1,1.27,1.94,2.56,2.89,3.83-1,1.6-2.47.86-3.62.87-12.79.06-25.58-.06-38.37.11a7.36,7.36,0,0,1-6.56-3.16q-20-25.37-40.26-50.6c-1.4-1.75-2.83-3.49-4.75-5.85-3.16,3.34-6,6.47-8.95,9.42a8.7,8.7,0,0,0-2.79,6.83c.15,12.57.08,25.13,0,37.7,0,1.73.43,3.54-.63,5.38H424.36V5.38Z" transform="translate(-10.03 -5.38)"></path><path class="rank4win_logo_svg-1" d="M994.54,220.13H958c-1.58-1.93-1-3.77-1-5.45q-.06-32.62,0-65.25c0-16.6-12-28.9-28.2-29.09s-29.07,12.29-29.18,28.81c-.14,21.75,0,43.5-.05,65.24,0,1.74.43,3.55-.62,5.39H862.39V86.18H899c1.41,2.44-.29,5.36,1.29,8.2,16-14.38,34.1-13.41,52.46-6.62,20.88,7.74,33.84,22.95,39.89,44,.59,2.06.15,4.46,1.92,6.17Z" transform="translate(-10.03 -5.38)"></path><path class="rank4win_logo_svg-2" d="M530.59,169.87h-34c0-9.5-.67-18.64.33-27.61.41-3.65,4.43-6.94,6.89-10.33Q519.89,109.78,536,87.64a10.25,10.25,0,0,0,.84-1.73c9.07-12.23,18.18-24.43,27.19-36.69,8.34-11.36,16.66-22.75,24.82-34.24a7.34,7.34,0,0,1,6.88-3.49c10.63.18,21.26.07,32.59.07V85.82c0,15,0,30,0,45.36h33.82c.94,11.82.12,23.67.43,35.5,0,3.51-2.61,3-4.87,3H628.17v50.18h-40v-50ZM588,82.34,586.89,82,551.07,130.8H588V82.34Z" transform="translate(-10.03 -5.38)"></path><path class="rank4win_logo_svg-1" d="M201.6,96V86.07h35.9V219.74H201.73V211c-.62-.08-1-.27-1.2-.14-15.85,13.9-34.43,13.75-53.28,9-32.24-8.18-53.74-38.47-51.7-71.61,2-32.51,27.56-59.76,60.37-64.33,15.82-2.2,30.34.54,42.78,11.06a15.08,15.08,0,0,0,2,1.31C200.79,96.32,201,96.19,201.6,96ZM166.74,188c18.85,0,35.08-16.52,34.89-35.41-.19-18.71-16.35-34.95-34.88-35-18.77-.09-35,16.27-35,35.27S147.74,188.09,166.74,188Z" transform="translate(-10.03 -5.38)"></path><path class="rank4win_logo_svg-1" d="M304.22,219.78H267.13V86.16H304V94c.74.08,1.18.25,1.32.12,17.46-17,45.78-11.68,62.63-1.38,20.72,12.68,30.91,31.6,31.47,55.23.55,23.2.12,46.43.11,69.64a17,17,0,0,1-.29,2.08H362c-1-1.85-.53-3.65-.53-5.38q0-32.88,0-65.77c0-15.92-12-28-28-28.21s-29.12,12.18-29.26,27.81c-.2,22.09,0,44.17,0,66.26Z" transform="translate(-10.03 -5.38)"></path><path class="rank4win_logo_svg-1" d="M628.17,219.87V169.69h29.56c2.26,0,4.85.5,4.87-3,6.09-10.23,10.56-21.23,15.76-31.88,1.29-2.66,2.69-3.84,5.84-3.75,8.35.24,16.72.18,25.09,0,2.47,0,3.7.7,4.77,2.94,5.2,11,10.62,21.84,17,32.56V86.07h35V220H735c-2,0-2.62-1.66-3.53-2.94q-16-22.31-31.92-44.62c-.93-1.3-1.91-2.57-3.2-4.29l-17.29,24.34c-5.71,8-11.5,16-17.07,24.19-1.61,2.36-3.27,3.48-6.31,3.4C646.54,219.81,637.35,219.91,628.17,219.87Z" transform="translate(-10.03 -5.38)"></path><path class="rank4win_logo_svg-1" d="M47.36,219.79H10V86.13h37v10.1c14-11.43,29.48-14.67,46.64-13.37-2.82,11.64-5.59,23-8.33,34.42-.67,2.79-2.9,2.1-4.73,2.07-8.71-.11-16.5,2.3-23.06,8-6.72,5.86-10.24,13.19-10.23,22.11q0,32.39,0,64.77Z" transform="translate(-10.03 -5.38)"></path><path class="rank4win_logo_svg-1" d="M832.63,219.73H794.06V86.09h38.57Z" transform="translate(-10.03 -5.38)"></path><path class="rank4win_logo_svg-2" d="M813.65,54.86c-13,.06-23.45-9.78-23.56-22.29-.1-12.32,10.46-22.8,23.13-22.92S836.54,20,836.58,32.37C836.61,44.5,826.1,54.8,813.65,54.86Z" transform="translate(-10.03 -5.38)"></path><path class="rank4win_logo_svg-1" d="M662.17,131.18H628.35c0-15.34,0-30.35,0-45.36h33.81Z" transform="translate(-10.03 -5.38)"></path></svg>