<svg xmlns="http://www.w3.org/2000/svg" xmlns:xlink="http://www.w3.org/1999/xlink" version="1.1" id="Capa_1" x="0px" y="0px" viewBox="0 0 58 58" xml:space="preserve"><g><g> <g> <polygon style="fill:#EFEBDE;" points="45.5,14 31.5,0 0.5,0 0.5,58 45.5,58 " data-original="#EFEBDE"></polygon> <g> <path style="fill:#D5D0BB;" d="M10.5,23h25c0.552,0,1-0.447,1-1s-0.448-1-1-1h-25c-0.552,0-1,0.447-1,1S9.948,23,10.5,23z" data-original="#D5D0BB" class=""></path> <path style="fill:#D5D0BB;" d="M10.5,15h10c0.552,0,1-0.447,1-1s-0.448-1-1-1h-10c-0.552,0-1,0.447-1,1S9.948,15,10.5,15z" data-original="#D5D0BB" class=""></path> <path style="fill:#D5D0BB;" d="M35.5,29h-25c-0.552,0-1,0.447-1,1s0.448,1,1,1h25c0.552,0,1-0.447,1-1S36.052,29,35.5,29z" data-original="#D5D0BB" class=""></path> <path style="fill:#D5D0BB;" d="M35.5,37h-25c-0.552,0-1,0.447-1,1s0.448,1,1,1h25c0.552,0,1-0.447,1-1S36.052,37,35.5,37z" data-original="#D5D0BB" class=""></path> <path style="fill:#D5D0BB;" d="M35.5,45h-25c-0.552,0-1,0.447-1,1s0.448,1,1,1h25c0.552,0,1-0.447,1-1S36.052,45,35.5,45z" data-original="#D5D0BB" class=""></path> </g> <polygon style="fill:#D5D0BB;" points="31.5,0 31.5,14 45.5,14 " data-original="#D5D0BB" class=""></polygon> </g> <g> <path style="fill:#556080;" d="M57.5,44.846l-1.444-0.278c-2.143-0.412-3.125-2.916-1.835-4.675l0.907-1.236l-1.958-1.958 l-1.217,0.825c-1.806,1.224-4.272,0.148-4.604-2.008L47.115,34h-2.769l-0.359,1.865c-0.403,2.096-2.818,3.096-4.585,1.899 l-1.572-1.065l-1.958,1.958l0.907,1.236c1.29,1.76,0.308,4.263-1.835,4.675L33.5,44.846v2.769l1.515,0.233 c2.157,0.332,3.232,2.797,2.008,4.604l-0.825,1.217l1.958,1.958l1.236-0.907c1.76-1.29,4.263-0.308,4.675,1.835L44.346,58h2.769 l0.164-1.066c0.339-2.204,2.896-3.263,4.694-1.944l0.869,0.638l1.958-1.958l-0.825-1.217c-1.224-1.806-0.148-4.272,2.008-4.604 l1.515-0.233V44.846z" data-original="#556080"></path> <g> <path style="fill:#ECF0F1" d="M45.5,51c-2.757,0-5-2.243-5-5s2.243-5,5-5s5,2.243,5,5S48.257,51,45.5,51z M45.5,43 c-1.654,0-3,1.346-3,3s1.346,3,3,3s3-1.346,3-3S47.154,43,45.5,43z" data-original="#ECF0F1" class="active-path"></path> </g> </g> </g></g> </svg>