<svg xmlns="http://www.w3.org/2000/svg" enable-background="new 0 0 468 468" viewBox="0 0 468 468"><g><g><path d="m453 182h-110c-8.284 0-15 6.716-15 15v22h-59v30h59v22c0 8.284 6.716 15 15 15h110c8.284 0 15-6.716 15-15v-74c0-8.284-6.716-15-15-15zm-15 74h-80v-44h80z"></path><g><path d="m421 136h-110c-8.284 0-15-6.716-15-15v-74c0-8.284 6.716-15 15-15h110c8.284 0 15 6.716 15 15v74c0 8.284-6.716 15-15 15zm-95-30h80v-44h-80z"></path><path d="m245 69h29v30h-29z"></path><path d="m122 69h98v30h-98z"></path></g><g><path d="m421 436h-110c-8.284 0-15-6.716-15-15v-74c0-8.284 6.716-15 15-15h110c8.284 0 15 6.716 15 15v74c0 8.284-6.716 15-15 15zm-95-30h80v-44h-80z"></path><path d="m245 370h29v30h-29z"></path><path d="m122 370h98v30h-98z"></path></g><g><path d="m122 356c-67.271 0-122-54.729-122-122s54.729-122 122-122 122 54.729 122 122-54.729 122-122 122zm0-214c-50.729 0-92 41.271-92 92s41.271 92 92 92 92-41.271 92-92-41.271-92-92-92z"></path><path d="m92.462 281.849-32.016-28.913 20.107-22.264 21.255 19.194 60.906-63.008 21.57 20.85-70.984 73.434c-2.937 3.039-10.3 11.152-20.838.707z"></path></g></g></g> </svg>