<svg xmlns="http://www.w3.org/2000/svg" viewBox="-43 0 512 512.001"><path d="m213.472656 456.949219c-30.0625 0-59.292968-5.425781-86.582031-15.789063l-22.378906 40.84375h-41.6875v29.996094h301.300781v-29.996094h-41.691406l-22.375-40.84375c-27.289063 10.363282-56.519532 15.789063-86.585938 15.789063zm0 0"></path><path d="m213.472656 361.628906c81.695313 0 148.15625-66.460937 148.15625-148.152344 0-81.695312-66.460937-148.15625-148.15625-148.15625-81.691406 0-148.152344 66.460938-148.152344 148.152344 0 81.695313 66.460938 148.15625 148.152344 148.15625zm0-260.988281c62.21875 0 112.835938 50.617187 112.835938 112.835937 0 62.214844-50.617188 112.832032-112.835938 112.832032-62.214844 0-112.832031-50.617188-112.832031-112.832032 0-62.21875 50.617187-112.835937 112.832031-112.835937zm0 0"></path><path d="m213.472656 426.949219c117.710938 0 213.476563-95.765625 213.476563-213.472657 0-117.710937-95.765625-213.476562-213.476563-213.476562-117.707031 0-213.472656 95.765625-213.472656 213.472656 0 117.710938 95.765625 213.476563 213.472656 213.476563zm0-391.628907c98.234375 0 178.15625 79.921876 178.15625 178.152344 0 98.234375-79.921875 178.152344-178.15625 178.152344-98.230468 0-178.152344-79.917969-178.152344-178.152344 0-98.230468 79.921876-178.152344 178.152344-178.152344zm0 0"></path><path d="m213.472656 230.988281c9.660156 0 17.515625-7.855469 17.515625-17.515625 0-9.65625-7.855469-17.515625-17.515625-17.515625-9.65625 0-17.511718 7.859375-17.511718 17.515625 0 9.660156 7.855468 17.515625 17.511718 17.515625zm0 0"></path><path d="m213.472656 296.308594c45.675782 0 82.835938-37.160156 82.835938-82.835938 0-45.675781-37.160156-82.832031-82.835938-82.832031-45.671875 0-82.832031 37.15625-82.832031 82.832031 0 45.675782 37.160156 82.835938 82.832031 82.835938zm0-130.347656c26.199219 0 47.515625 21.3125 47.515625 47.515624 0 26.199219-21.316406 47.511719-47.515625 47.511719-26.195312 0-47.511718-21.316406-47.511718-47.515625 0-26.199218 21.316406-47.511718 47.511718-47.511718zm0 0"></path></svg>