<svg xmlns="http://www.w3.org/2000/svg" enable-background="new 0 0 512 512" viewBox="0 0 512 512"><g><path d="m451 362v75h-30v-45h-150v45h-30v-45h-150v45h-30v-75h180v-45h30v45z" fill="#596c76" data-original="#596C76" class="" style="fill:#596C76"></path><path d="m451 362v75h-30v-45h-150v45h-15v-120h15v45z" fill="#465a61" data-original="#465A61" class="" style="fill:#465A61"></path><path d="m376 120c0 43.86-23.81 82.6-60 103.55v33.45c0 8.28-6.72 15-15 15h-90c-8.28 0-15-6.72-15-15v-33.45c-36.19-20.95-60-59.69-60-103.55 0-66.17 53.83-120 120-120s120 53.83 120 120z" fill="#ffda2d" data-original="#FFDA2D" class="" style="fill:#FFDA2D"></path><path d="m376 120c0 43.86-23.81 82.6-60 103.55v33.45c0 8.28-6.72 15-15 15h-45v-272c66.17 0 120 53.83 120 120z" fill="#fdbf00" data-original="#FDBF00" class="" style="fill:#FDBF00"></path><path d="m296.61 145.61-25.61 25.6v100.79h-30v-100.79l-25.61-25.6 21.22-21.22 19.39 19.4 19.39-19.4z" fill="#fdbf00" data-original="#FDBF00" class="" style="fill:#FDBF00"></path><path d="m296.61 145.61-25.61 25.6v100.79h-15v-128.21l19.39-19.4z" fill="#ff9100" data-original="#FF9100" class="" style="fill:#FF9100"></path><path d="m196 257h120v75h-120z" fill="#d9f2ff" data-original="#D9F2FF" class="" style="fill:#D9F2FF"></path><path d="m256 257h60v75h-60z" fill="#cdf" data-original="#CDF" class="" style="fill:#CDF"></path><path d="m76 422c-24.702 0-45 20.095-45 45 0 24.81 20.19 45 45 45s45-20.19 45-45c0-24.898-20.288-45-45-45z" fill="#57d9ad" data-original="#57D9AD" class="" style="fill:#ED8A19" data-old_color="#ed8a19"></path><path d="m256 422c-24.7 0-45 20.09-45 45 0 24.81 20.19 45 45 45s45-20.19 45-45c0-24.9-20.29-45-45-45z" fill="#57d9ad" data-original="#57D9AD" class="" style="fill:#ED8A19" data-old_color="#ed8a19"></path><g fill="#26bfa6"><path d="m301 467c0 24.81-20.19 45-45 45v-90c24.71 0 45 20.1 45 45z" data-original="#000000" class="active-path" style="fill:#ED8A19" data-old_color="#ed8a19"></path><path d="m436 422c-24.702 0-45 20.095-45 45 0 24.81 20.19 45 45 45s45-20.19 45-45c0-24.898-20.288-45-45-45z" data-original="#000000" class="active-path" style="fill:#ED8A19" data-old_color="#ed8a19"></path></g></g> </svg>