<svg xmlns="http://www.w3.org/2000/svg" version="1.1" xmlns:xlink="http://www.w3.org/1999/xlink" xmlns:svgjs="http://svgjs.com/svgjs" x="0" y="0" viewBox="0 0 64 64"  xml:space="preserve" class=""><path d="m57 7h-50a5 5 0 0 0 -5 5v40a5 5 0 0 0 5 5h50a5 5 0 0 0 5-5v-40a5 5 0 0 0 -5-5zm-28 5a2 2 0 1 1 -2 2 2 2 0 0 1 2-2zm-9 0a2 2 0 1 1 -2 2 2 2 0 0 1 2-2zm-9 0a2 2 0 1 1 -2 2 2 2 0 0 1 2-2zm49 40a3 3 0 0 1 -3 3h-50a3 3 0 0 1 -3-3v-32h56z"></path><path d="m43.24 25.47a5.1 5.1 0 0 0 -7.21 0l-3.62 3.62a5.11 5.11 0 0 0 -.64 6.43l-1.54 1.54a5 5 0 0 0 -6.23.64l-3.85 3.85a4.94 4.94 0 0 0 7 7l3.85-3.87a5 5 0 0 0 .63-6.21l1.54-1.54a5.1 5.1 0 0 0 6.43-.64l3.62-3.62a5.1 5.1 0 0 0 0-7.21zm-13.64 17.8-3.85 3.85a2.94 2.94 0 0 1 -4.15-4.12l3.85-3.85a2.91 2.91 0 0 1 3.32-.57l-2.47 2.42a1 1 0 1 0 1.41 1.41l2.47-2.41a2.93 2.93 0 0 1 -.58 3.27zm12.23-12-3.62 3.62a3.17 3.17 0 0 1 -3.54.57l2.46-2.46a1 1 0 0 0 -1.41-1.41l-2.47 2.47a3.06 3.06 0 0 1 .58-3.55l3.62-3.62a3.1 3.1 0 0 1 4.38 4.38z"></path></svg>